<svg xmlns="http://www.w3.org/2000/svg" viewBox="0 0 24 24" width="24" height="24">
  <path fill="#ffffff" d="M11.146 0h3.924v18.166c-2.013.382-3.491.535-5.096.535-4.791 0-7.288-2.166-7.288-6.32 0-3.958 2.714-6.517 6.924-6.517.637 0 1.101.05 1.537.153V0zM11.146 9.143c-.399-.102-.735-.153-1.152-.153-2.037 0-3.208 1.254-3.208 3.47 0 2.165 1.118 3.36 3.156 3.36.396 0 .72-.025 1.204-.102V9.143zM21.314 6.06v9.098c0 3.134-.232 4.636-.927 5.936-.644 1.245-1.484 2.03-3.234 2.905l-3.64-1.729c1.75-.82 2.59-1.528 3.145-2.665.58-1.168.783-2.523.783-5.936V6.06h3.873zM21.314 0v3.973h-3.873V0h3.873z"/>
</svg>
