<svg width="400" height="400" viewBox="0 0 400 400" fill="none" xmlns="http://www.w3.org/2000/svg">
<g clip-path="url(#clip0_2_21)">
<g clip-path="url(#clip1_2_21)">
<path d="M330.075 172.853C334.831 178.896 366.385 230.584 373.549 278.69C376.914 300.941 378.166 326.422 357.84 337.048C350.996 340.616 344.678 341.716 337.438 341.385L81.9873 333.473C76.5686 333.459 73.5766 332.003 77.5387 330.354C81.2482 328.81 89.0599 328.219 97.6144 327.822L319.949 313.209C334.48 312.668 347.88 306.832 353.183 289.927C361.884 262.999 351.249 223.217 331.217 178.454C328.813 173.025 329.385 172.355 330.013 172.889L330.075 172.853Z" fill="#2A2A2E"/>
<path d="M290.779 113.641C279.439 94.2788 259.706 73.7297 241.368 61.6122C223.023 49.5194 205.028 44.6461 191.755 52.4199C173.136 63.095 171.737 85.0534 177.893 111.353C184.153 141.303 202.396 174.49 223.702 201.52C239.93 221.564 262.309 239.22 280.194 246.339C287.04 248.789 293.389 250.606 295.169 249.564C296.231 248.942 293.655 247.766 289.605 245.399C268.406 232.944 250.24 210.953 234.994 184.924C213.584 148.37 209.053 125.775 208.526 111.593C208.028 96.743 212.069 84.9177 220.704 79.8601C236.084 70.8515 259.14 82.6806 288.256 112.162C290.649 114.493 291.895 115.546 290.779 113.641Z" fill="#2A2A2E"/>
<path d="M148.736 118.071C139.579 136.416 146.101 155.392 158.2 176.05C183.214 218.755 236.951 256.149 274.725 267.578C293.288 274.279 309.546 275.326 318.789 269.661C330.456 262.512 331.293 246.147 330.53 230.236C330.298 225.758 331.069 225.999 332.171 230.03C338.65 254.588 338.99 274.647 320.156 285.994C305.31 294.983 282.368 293.301 251.299 282.327C214.223 268.581 168.161 242.965 139.617 208.304C125.329 191.214 121.682 175.357 125.162 164.363C129.495 149.956 138.724 134.169 148.736 118.071Z" fill="#2A2A2E"/>
<path d="M226.726 294.833C208.807 290.376 186.434 282.719 161.327 266.744C144.198 256.225 128.218 242.978 114.818 225.829C106.593 215.295 94.915 217.27 88.3528 225.329C77.7585 238.14 54.9018 291.814 35.7289 318.479C31.1746 324.774 29.5936 330.775 33.4239 336.312C38.7958 343.693 47.1876 343.413 52.2108 340.03C58.5721 335.423 59.3942 328.986 56.7912 322.143C67.9334 305.362 92.2914 271.151 106.759 257.182C130.73 273.152 160.153 282.929 179.838 288.071C197.678 292.679 215.905 296.264 226.96 295.661C228.538 295.491 228.461 295.18 226.726 294.833Z" fill="#2A2A2E"/>
</g>
</g>
<defs>
<clipPath id="clip0_2_21">
<rect width="400" height="400" fill="white"/>
</clipPath>
<clipPath id="clip1_2_21">
<rect width="361.914" height="361.914" fill="white" transform="translate(243.973 3.29594) rotate(59.6414)"/>
</clipPath>
</defs>
</svg>
